<svg width="229" height="25" viewBox="0 0 229 25" fill="none" xmlns="http://www.w3.org/2000/svg">
<path d="M4.64407 14.9759V23.9399H7.05421e-05V10.2599L4.64407 14.9759ZM17.5681 24.4799L7.05421e-05 6.65994V-5.93662e-05L12.8881 13.1039V0.503941H17.5681V24.4799ZM32.8056 0.503941H42.4536V5.18394H32.8056V0.503941ZM32.8056 9.89994H42.4536V14.5439H32.8056V9.89994ZM30.2856 0.503941V23.9399H25.6056V0.503941H30.2856ZM32.8056 19.2959H42.4536V23.9399H32.8056V19.2959ZM52.5274 10.9799H47.7754C48.1114 7.78794 49.4074 5.15994 51.6634 3.09594C53.9194 1.03194 56.6914 -5.93662e-05 59.9794 -5.93662e-05C63.2194 -5.93662e-05 66.0514 1.05594 68.4754 3.16794C70.8994 5.27994 72.1114 7.88394 72.1114 10.9799H67.3594C67.1194 9.20394 66.3274 7.70394 64.9834 6.47994C63.6394 5.25594 61.9834 4.64394 60.0154 4.64394C58.0474 4.64394 56.3794 5.25594 55.0114 6.47994C53.6674 7.70394 52.8394 9.20394 52.5274 10.9799ZM52.5274 13.3559C52.7674 15.1319 53.5594 16.6439 54.9034 17.8919C56.2714 19.1159 57.9634 19.7279 59.9794 19.7279C61.9714 19.7279 63.6634 19.1039 65.0554 17.8559C66.4474 16.5839 67.2154 15.0839 67.3594 13.3559H72.1114C72.1114 16.4519 70.8874 19.0679 68.4394 21.2039C66.0154 23.3159 63.1954 24.3719 59.9794 24.3719C56.7634 24.3719 54.0034 23.3399 51.6994 21.2759C49.4194 19.1879 48.1114 16.5479 47.7754 13.3559H52.5274ZM98.0607 7.70394H102.741V23.9399H98.0607V7.70394ZM93.0567 0.503941H107.745V5.18394H93.0567V0.503941ZM120.191 0.503941H122.999C124.871 0.503941 126.491 1.19994 127.859 2.59194C129.227 3.98394 129.911 5.62794 129.911 7.52394C129.911 9.41994 129.227 11.0639 127.859 12.4559C126.491 13.8479 124.871 14.5439 122.999 14.5439H120.191V9.89994H122.999C123.527 9.89994 124.031 9.64794 124.511 9.14394C124.991 8.63994 125.231 8.09994 125.231 7.52394C125.231 6.94794 124.991 6.41994 124.511 5.93994C124.055 5.43594 123.551 5.18394 122.999 5.18394H120.191V0.503941ZM117.707 0.503941V23.9399H113.063V0.503941H117.707ZM130.523 23.9399H125.231L122.243 16.7399C123.131 16.7399 123.971 16.6319 124.763 16.4159C125.579 16.1999 126.263 15.9119 126.815 15.5519L130.523 23.9399ZM150.682 19.9799H143.518L145.894 15.3359H148.378L143.086 5.14794L145.75 -5.93662e-05L157.99 23.9399H152.77L150.682 19.9799ZM138.73 23.9399H133.51L141.754 7.81194L144.382 12.9599L138.73 23.9399ZM180.464 0.503941H185.684L177.548 16.4879L174.92 11.3759L180.464 0.503941ZM166.568 0.503941L176.144 19.3319L173.516 24.4799L161.312 0.503941H166.568ZM198.743 0.503941H208.391V5.18394H198.743V0.503941ZM198.743 9.89994H208.391V14.5439H198.743V9.89994ZM196.223 0.503941V23.9399H191.543V0.503941H196.223ZM198.743 19.2959H208.391V23.9399H198.743V19.2959ZM219.941 0.503941V23.9399H215.297V0.503941H219.941ZM222.425 23.9399V19.2599H228.869V23.9399H222.425Z" fill="#DE1A1B"/>
</svg>
