<svg width="100" height="100" viewBox="0 0 100 100" fill="none" xmlns="http://www.w3.org/2000/svg">
<path d="M51.6825 0.499146C53.8351 0.499146 55.9877 0.499146 58.2056 0.499146C58.2056 3.7935 58.2056 7.08786 58.2056 10.482C59.3647 10.482 60.5237 10.482 61.718 10.482C61.718 9.32902 61.718 8.17599 61.718 6.98803C62.8771 6.98803 64.0361 6.98803 65.2304 6.98803C65.2304 5.835 65.2304 4.68198 65.2304 3.49402C66.3895 3.49402 67.5486 3.49402 68.7428 3.49402C68.7428 5.80006 68.7428 8.10611 68.7428 10.482C69.9019 10.482 71.061 10.482 72.2552 10.482C72.2552 11.6351 72.2552 12.7881 72.2552 13.9761C71.0961 13.9761 69.937 13.9761 68.7428 13.9761C68.7428 15.1291 68.7428 16.2821 68.7428 17.4701C66.4246 17.4701 64.1064 17.4701 61.718 17.4701C61.718 18.4584 61.718 19.4467 61.718 20.4649C62.8771 20.4649 64.0361 20.4649 65.2304 20.4649C65.2304 21.618 65.2304 22.771 65.2304 23.959C64.0713 23.959 62.9122 23.959 61.718 23.959C61.718 22.9707 61.718 21.9823 61.718 20.9641C60.7245 20.9641 59.7309 20.9641 58.7073 20.9641C58.7073 23.1054 58.7073 25.2468 58.7073 27.453C62.019 27.453 65.3307 27.453 68.7428 27.453C68.7428 25.1469 68.7428 22.8409 68.7428 20.4649C69.9019 20.4649 71.061 20.4649 72.2552 20.4649C72.2552 22.771 72.2552 25.077 72.2552 27.453C73.4143 27.453 74.5734 27.453 75.7676 27.453C75.7676 30.912 75.7676 34.3711 75.7676 37.935C74.6085 37.935 73.4494 37.935 72.2552 37.935C72.2552 40.0763 72.2552 42.2177 72.2552 44.4239C73.4143 44.4239 74.5734 44.4239 75.7676 44.4239C75.7676 43.4356 75.7676 42.4473 75.7676 41.429C77.9202 41.429 80.0728 41.429 82.2906 41.429C82.2906 42.4173 82.2906 43.4056 82.2906 44.4239C86.927 44.4239 91.5634 44.4239 96.3402 44.4239C96.3402 42.2826 96.3402 40.1412 96.3402 37.935C97.3337 37.935 98.3272 37.935 99.3509 37.935C99.3509 43.5354 99.3509 49.1358 99.3509 54.9059C98.3574 54.9059 97.3638 54.9059 96.3402 54.9059C96.3402 52.5999 96.3402 50.2938 96.3402 47.9179C95.1811 47.9179 94.022 47.9179 92.8278 47.9179C92.8278 50.224 92.8278 52.53 92.8278 54.9059C91.6687 54.9059 90.5096 54.9059 89.3154 54.9059C89.3154 55.8943 89.3154 56.8826 89.3154 57.9008C91.6336 57.9008 93.9518 57.9008 96.3402 57.9008C96.3402 59.0538 96.3402 60.2069 96.3402 61.3948C94.022 61.3948 91.7039 61.3948 89.3154 61.3948C89.3154 62.5479 89.3154 63.7009 89.3154 64.8888C90.4745 64.8888 91.6336 64.8888 92.8278 64.8888C92.8278 66.0419 92.8278 67.1949 92.8278 68.3829C93.9869 68.3829 95.146 68.3829 96.3402 68.3829C96.3402 69.5359 96.3402 70.6889 96.3402 71.8769C94.022 71.8769 91.7039 71.8769 89.3154 71.8769C89.3154 74.1829 89.3154 76.489 89.3154 78.8649C88.1563 78.8649 86.9972 78.8649 85.803 78.8649C85.803 79.8532 85.803 80.8415 85.803 81.8598C86.9621 81.8598 88.1212 81.8598 89.3154 81.8598C89.3154 83.0128 89.3154 84.1658 89.3154 85.3538C84.8446 85.3538 80.3738 85.3538 75.7676 85.3538C75.7676 87.6598 75.7676 89.9659 75.7676 92.3418C74.6085 92.3418 73.4494 92.3418 72.2552 92.3418C72.2552 90.0358 72.2552 87.7297 72.2552 85.3538C69.937 85.3538 67.6188 85.3538 65.2304 85.3538C65.2304 86.5068 65.2304 87.6598 65.2304 88.8478C64.0713 88.8478 62.9122 88.8478 61.718 88.8478C61.718 90.0008 61.718 91.1538 61.718 92.3418C62.8771 92.3418 64.0361 92.3418 65.2304 92.3418C65.2304 93.4948 65.2304 94.6479 65.2304 95.8358C64.0713 95.8358 62.9122 95.8358 61.718 95.8358C61.718 96.9889 61.718 98.1419 61.718 99.3298C60.5589 99.3298 59.3998 99.3298 58.2056 99.3298C58.2056 98.1768 58.2056 97.0238 58.2056 95.8358C57.212 95.8358 56.2185 95.8358 55.1949 95.8358C55.1949 94.6828 55.1949 93.5298 55.1949 92.3418C52.8767 92.3418 50.5586 92.3418 48.1701 92.3418C48.1701 94.4831 48.1701 96.6245 48.1701 98.8307C47.011 98.8307 45.8519 98.8307 44.6577 98.8307C44.6577 97.8424 44.6577 96.8541 44.6577 95.8358C43.6642 95.8358 42.6707 95.8358 41.6471 95.8358C41.6471 96.9889 41.6471 98.1419 41.6471 99.3298C39.3289 99.3298 37.0107 99.3298 34.6223 99.3298C34.6223 98.1768 34.6223 97.0238 34.6223 95.8358C35.7814 95.8358 36.9405 95.8358 38.1347 95.8358C38.1347 93.5298 38.1347 91.2237 38.1347 88.8478C34.6574 88.8478 31.1801 88.8478 27.5975 88.8478C27.5975 83.2474 27.5975 77.647 27.5975 71.8769C25.2793 71.8769 22.9611 71.8769 20.5727 71.8769C20.5727 70.7238 20.5727 69.5708 20.5727 68.3829C22.8908 68.3829 25.209 68.3829 27.5975 68.3829C27.5975 67.2298 27.5975 66.0768 27.5975 64.8888C28.7566 64.8888 29.9156 64.8888 31.1099 64.8888C31.1099 63.7358 31.1099 62.5828 31.1099 61.3948C29.9508 61.3948 28.7917 61.3948 27.5975 61.3948C27.5975 60.4065 27.5975 59.4182 27.5975 58.4C23.1267 58.4 18.6559 58.4 14.0496 58.4C14.0496 59.3883 14.0496 60.3766 14.0496 61.3948C15.2087 61.3948 16.3678 61.3948 17.562 61.3948C17.562 64.8539 17.562 68.313 17.562 71.8769C16.2373 71.8769 14.9127 71.8769 13.5478 71.8769C13.5478 68.5825 13.5478 65.2882 13.5478 61.894C12.5543 61.894 11.5608 61.894 10.5372 61.894C10.5372 64.0353 10.5372 66.1766 10.5372 68.3829C9.37812 68.3829 8.21903 68.3829 7.02481 68.3829C7.02481 69.5359 7.02481 70.6889 7.02481 71.8769C4.70662 71.8769 2.38844 71.8769 0 71.8769C0 67.2648 0 62.6527 0 57.9008C1.15909 57.9008 2.31819 57.9008 3.5124 57.9008C3.5124 55.7595 3.5124 53.6181 3.5124 51.4119C4.6715 51.4119 5.83059 51.4119 7.02481 51.4119C7.02481 49.1059 7.02481 46.7998 7.02481 44.4239C4.87221 44.4239 2.7196 44.4239 0.501772 44.4239C0.501772 43.4356 0.501772 42.4473 0.501772 41.429C2.65437 41.429 4.80698 41.429 7.02481 41.429C7.02481 40.276 7.02481 39.123 7.02481 37.935C8.1839 37.935 9.343 37.935 10.5372 37.935C10.5372 40.0763 10.5372 42.2177 10.5372 44.4239C11.6963 44.4239 12.8554 44.4239 14.0496 44.4239C14.0496 45.5769 14.0496 46.7299 14.0496 47.9179C18.5204 47.9179 22.9912 47.9179 27.5975 47.9179C27.5975 46.7649 27.5975 45.6119 27.5975 44.4239C25.4449 44.4239 23.2923 44.4239 21.0744 44.4239C21.0744 43.4356 21.0744 42.4473 21.0744 41.429C22.2335 41.429 23.3926 41.429 24.5868 41.429C24.5868 40.276 24.5868 39.123 24.5868 37.935C23.2622 37.935 21.9375 37.935 20.5727 37.935C20.5727 38.9233 20.5727 39.9116 20.5727 40.9299C19.5791 40.9299 18.5856 40.9299 17.562 40.9299C17.562 37.6355 17.562 34.3412 17.562 30.947C16.4029 30.947 15.2438 30.947 14.0496 30.947C14.0496 32.1 14.0496 33.253 14.0496 34.441C11.7314 34.441 9.41324 34.441 7.02481 34.441C7.02481 33.288 7.02481 32.135 7.02481 30.947C8.1839 30.947 9.343 30.947 10.5372 30.947C10.5372 29.794 10.5372 28.6409 10.5372 27.453C17.3262 27.453 24.1152 27.453 31.1099 27.453C31.1099 28.606 31.1099 29.759 31.1099 30.947C27.6326 30.947 24.1553 30.947 20.5727 30.947C20.5727 32.1 20.5727 33.253 20.5727 34.441C22.8908 34.441 25.209 34.441 27.5975 34.441C27.5975 36.7471 27.5975 39.0531 27.5975 41.429C28.7566 41.429 29.9156 41.429 31.1099 41.429C31.1099 40.276 31.1099 39.123 31.1099 37.935C32.269 37.935 33.4281 37.935 34.6223 37.935C34.6223 40.0763 34.6223 42.2177 34.6223 44.4239C35.7814 44.4239 36.9405 44.4239 38.1347 44.4239C38.1347 45.5769 38.1347 46.7299 38.1347 47.9179C39.2938 47.9179 40.4529 47.9179 41.6471 47.9179C41.6471 49.0709 41.6471 50.224 41.6471 51.4119C42.6406 51.4119 43.6341 51.4119 44.6577 51.4119C44.6577 49.1059 44.6577 46.7998 44.6577 44.4239C43.4986 44.4239 42.3395 44.4239 41.1453 44.4239C41.1453 43.4356 41.1453 42.4473 41.1453 41.429C40.1518 41.429 39.1583 41.429 38.1347 41.429C38.1347 39.123 38.1347 36.8169 38.1347 34.441C40.2873 34.441 42.4399 34.441 44.6577 34.441C44.6577 33.288 44.6577 32.135 44.6577 30.947C43.6642 30.947 42.6707 30.947 41.6471 30.947C41.6471 27.4879 41.6471 24.0288 41.6471 20.4649C42.6406 20.4649 43.6341 20.4649 44.6577 20.4649C44.6577 21.618 44.6577 22.771 44.6577 23.959C45.8168 23.959 46.9759 23.959 48.1701 23.959C48.1701 22.8059 48.1701 21.6529 48.1701 20.4649C49.3292 20.4649 50.4883 20.4649 51.6825 20.4649C51.6825 19.4766 51.6825 18.4883 51.6825 17.4701C50.5234 17.4701 49.3643 17.4701 48.1701 17.4701C48.1701 16.317 48.1701 15.164 48.1701 13.9761C50.4883 13.9761 52.8065 13.9761 55.1949 13.9761C55.1949 12.823 55.1949 11.67 55.1949 10.482C54.0358 10.482 52.8767 10.482 51.6825 10.482C51.6825 9.32902 51.6825 8.17599 51.6825 6.98803C52.8416 6.98803 54.0007 6.98803 55.1949 6.98803C55.1949 5.835 55.1949 4.68198 55.1949 3.49402C54.0358 3.49402 52.8767 3.49402 51.6825 3.49402C51.6825 2.50571 51.6825 1.5174 51.6825 0.499146Z" fill="#0B0B0B"/>
<path d="M10.5372 27.453C17.3262 27.453 24.1152 27.453 31.1099 27.453C31.1099 28.606 31.1099 29.7591 31.1099 30.947C27.6326 30.947 24.1553 30.947 20.5727 30.947C20.5727 32.1 20.5727 33.2531 20.5727 34.441C22.8908 34.441 25.209 34.441 27.5975 34.441C27.5975 36.7471 27.5975 39.0531 27.5975 41.4291C28.7566 41.4291 29.9156 41.4291 31.1099 41.4291C31.1099 40.276 31.1099 39.123 31.1099 37.935C32.269 37.935 33.4281 37.935 34.6223 37.935C34.6223 40.0764 34.6223 42.2177 34.6223 44.4239C35.7814 44.4239 36.9405 44.4239 38.1347 44.4239C38.1347 45.577 38.1347 46.73 38.1347 47.9179C39.2938 47.9179 40.4529 47.9179 41.6471 47.9179C41.6471 49.071 41.6471 50.224 41.6471 51.412C42.6406 51.412 43.6341 51.412 44.6577 51.412C44.6577 52.565 44.6577 53.718 44.6577 54.906C43.6642 54.906 42.6707 54.906 41.6471 54.906C41.6471 55.8943 41.6471 56.8826 41.6471 57.9008C43.7997 57.9008 45.9523 57.9008 48.1701 57.9008C48.1701 56.9125 48.1701 55.9242 48.1701 54.906C49.3292 54.906 50.4883 54.906 51.6825 54.906C51.6825 57.0473 51.6825 59.1886 51.6825 61.3949C48.2052 61.3949 44.728 61.3949 41.1453 61.3949C41.1453 60.4066 41.1453 59.4182 41.1453 58.4C38.9927 58.4 36.8401 58.4 34.6223 58.4C34.6223 61.6943 34.6223 64.9887 34.6223 68.3829C34.4567 68.3829 34.2911 68.3829 34.1205 68.3829C34.1205 65.0885 34.1205 61.7942 34.1205 58.4C32.1335 58.4 30.1465 58.4 28.0992 58.4C28.0992 59.3883 28.0992 60.3766 28.0992 61.3949C27.9336 61.3949 27.7681 61.3949 27.5975 61.3949C27.5975 60.4066 27.5975 59.4182 27.5975 58.4C23.1267 58.4 18.6559 58.4 14.0496 58.4C14.0496 59.3883 14.0496 60.3766 14.0496 61.3949C15.2087 61.3949 16.3678 61.3949 17.562 61.3949C17.562 64.8539 17.562 68.313 17.562 71.8769C16.2373 71.8769 14.9127 71.8769 13.5478 71.8769C13.5478 68.5825 13.5478 65.2882 13.5478 61.894C12.5543 61.894 11.5608 61.894 10.5372 61.894C10.5372 64.0353 10.5372 66.1767 10.5372 68.3829C9.37812 68.3829 8.21903 68.3829 7.02481 68.3829C7.02481 69.5359 7.02481 70.6889 7.02481 71.8769C4.70662 71.8769 2.38844 71.8769 0 71.8769C0 67.2648 0 62.6527 0 57.9008C1.15909 57.9008 2.31819 57.9008 3.5124 57.9008C3.5124 55.7595 3.5124 53.6182 3.5124 51.412C4.6715 51.412 5.83059 51.412 7.02481 51.412C7.02481 49.1059 7.02481 46.7999 7.02481 44.4239C4.87221 44.4239 2.7196 44.4239 0.501772 44.4239C0.501772 43.4356 0.501772 42.4473 0.501772 41.4291C2.65437 41.4291 4.80698 41.4291 7.02481 41.4291C7.02481 40.276 7.02481 39.123 7.02481 37.935C8.1839 37.935 9.343 37.935 10.5372 37.935C10.5372 40.0764 10.5372 42.2177 10.5372 44.4239C11.6963 44.4239 12.8554 44.4239 14.0496 44.4239C14.0496 45.577 14.0496 46.73 14.0496 47.9179C18.5204 47.9179 22.9912 47.9179 27.5975 47.9179C27.5975 46.7649 27.5975 45.6119 27.5975 44.4239C25.4449 44.4239 23.2923 44.4239 21.0744 44.4239C21.0744 43.4356 21.0744 42.4473 21.0744 41.4291C22.2335 41.4291 23.3926 41.4291 24.5868 41.4291C24.5868 40.276 24.5868 39.123 24.5868 37.935C23.2622 37.935 21.9375 37.935 20.5727 37.935C20.5727 38.9234 20.5727 39.9117 20.5727 40.9299C19.5791 40.9299 18.5856 40.9299 17.562 40.9299C17.562 37.6356 17.562 34.3412 17.562 30.947C16.4029 30.947 15.2438 30.947 14.0496 30.947C14.0496 32.1 14.0496 33.2531 14.0496 34.441C11.7314 34.441 9.41324 34.441 7.02481 34.441C7.02481 33.288 7.02481 32.135 7.02481 30.947C8.1839 30.947 9.343 30.947 10.5372 30.947C10.5372 29.794 10.5372 28.641 10.5372 27.453Z" fill="#868686"/>
<path d="M51.6826 0.499146C53.8352 0.499146 55.9878 0.499146 58.2056 0.499146C58.2056 3.7935 58.2056 7.08786 58.2056 10.482C59.3647 10.482 60.5238 10.482 61.718 10.482C61.718 9.32902 61.718 8.176 61.718 6.98803C62.8771 6.98803 64.0362 6.98803 65.2305 6.98803C65.2305 5.83501 65.2305 4.68198 65.2305 3.49402C66.3895 3.49402 67.5486 3.49402 68.7429 3.49402C68.7429 5.80007 68.7429 8.10611 68.7429 10.482C69.902 10.482 71.061 10.482 72.2553 10.482C72.2553 11.6351 72.2553 12.7881 72.2553 13.9761C71.0962 13.9761 69.9371 13.9761 68.7429 13.9761C68.7429 15.1291 68.7429 16.2821 68.7429 17.4701C66.4247 17.4701 64.1065 17.4701 61.718 17.4701C61.718 18.4584 61.718 19.4467 61.718 20.4649C62.8771 20.4649 64.0362 20.4649 65.2305 20.4649C65.2305 21.618 65.2305 22.771 65.2305 23.959C64.0714 23.959 62.9123 23.959 61.718 23.959C61.718 22.9707 61.718 21.9823 61.718 20.9641C60.7245 20.9641 59.731 20.9641 58.7074 20.9641C58.7074 23.1054 58.7074 25.2468 58.7074 27.453C62.0191 27.453 65.3308 27.453 68.7429 27.453C68.7429 25.1469 68.7429 22.8409 68.7429 20.4649C69.902 20.4649 71.061 20.4649 72.2553 20.4649C72.2553 22.771 72.2553 25.077 72.2553 27.453C73.4144 27.453 74.5734 27.453 75.7677 27.453C75.7677 30.912 75.7677 34.3711 75.7677 37.935C74.6086 37.935 73.4495 37.935 72.2553 37.935C72.2553 40.0764 72.2553 42.2177 72.2553 44.4239C71.0962 44.4239 69.9371 44.4239 68.7429 44.4239C68.7429 43.4356 68.7429 42.4473 68.7429 41.429C67.5838 41.429 66.4247 41.429 65.2305 41.429C65.2305 40.1113 65.2305 38.7935 65.2305 37.4359C67.3831 37.4359 69.5357 37.4359 71.7535 37.4359C71.7535 34.3062 71.7535 31.1766 71.7535 27.9521C70.76 27.9521 69.7665 27.9521 68.7429 27.9521C68.7429 30.0935 68.7429 32.2348 68.7429 34.441C66.4247 34.441 64.1065 34.441 61.718 34.441C61.718 36.5823 61.718 38.7237 61.718 40.9299C60.559 40.9299 59.3999 40.9299 58.2056 40.9299C58.2056 44.389 58.2056 47.848 58.2056 51.4119C57.2121 51.4119 56.2186 51.4119 55.195 51.4119C55.195 49.1059 55.195 46.7998 55.195 44.4239C54.0359 44.4239 52.8768 44.4239 51.6826 44.4239C51.6826 45.5769 51.6826 46.73 51.6826 47.9179C50.5235 47.9179 49.3644 47.9179 48.1702 47.9179C48.1702 49.0709 48.1702 50.224 48.1702 51.4119C47.0111 51.4119 45.852 51.4119 44.6578 51.4119C44.6578 49.1059 44.6578 46.7998 44.6578 44.4239C43.4987 44.4239 42.3396 44.4239 41.1454 44.4239C41.1454 43.4356 41.1454 42.4473 41.1454 41.429C40.1519 41.429 39.1584 41.429 38.1348 41.429C38.1348 39.123 38.1348 36.8169 38.1348 34.441C40.2874 34.441 42.44 34.441 44.6578 34.441C44.6578 33.288 44.6578 32.135 44.6578 30.947C43.6643 30.947 42.6708 30.947 41.6472 30.947C41.6472 27.4879 41.6472 24.0288 41.6472 20.4649C42.6407 20.4649 43.6342 20.4649 44.6578 20.4649C44.6578 21.618 44.6578 22.771 44.6578 23.959C45.8169 23.959 46.976 23.959 48.1702 23.959C48.1702 22.8059 48.1702 21.6529 48.1702 20.4649C49.3293 20.4649 50.4884 20.4649 51.6826 20.4649C51.6826 19.4766 51.6826 18.4883 51.6826 17.4701C50.5235 17.4701 49.3644 17.4701 48.1702 17.4701C48.1702 16.317 48.1702 15.164 48.1702 13.9761C50.4884 13.9761 52.8066 13.9761 55.195 13.9761C55.195 12.823 55.195 11.67 55.195 10.482C54.0359 10.482 52.8768 10.482 51.6826 10.482C51.6826 9.32902 51.6826 8.176 51.6826 6.98803C52.8417 6.98803 54.0008 6.98803 55.195 6.98803C55.195 5.83501 55.195 4.68198 55.195 3.49402C54.0359 3.49402 52.8768 3.49402 51.6826 3.49402C51.6826 2.50571 51.6826 1.5174 51.6826 0.499146Z" fill="#0A0A0A"/>
<path d="M85.8029 54.9059C86.962 54.9059 88.1211 54.9059 89.3153 54.9059C89.3153 55.8942 89.3153 56.8825 89.3153 57.9008C91.6335 57.9008 93.9517 57.9008 96.3401 57.9008C96.3401 59.0538 96.3401 60.2068 96.3401 61.3948C94.0219 61.3948 91.7038 61.3948 89.3153 61.3948C89.3153 62.5478 89.3153 63.7008 89.3153 64.8888C90.4744 64.8888 91.6335 64.8888 92.8277 64.8888C92.8277 66.0418 92.8277 67.1948 92.8277 68.3828C93.9868 68.3828 95.1459 68.3828 96.3401 68.3828C96.3401 69.5358 96.3401 70.6888 96.3401 71.8768C94.0219 71.8768 91.7038 71.8768 89.3153 71.8768C89.3153 74.1829 89.3153 76.4889 89.3153 78.8648C88.1562 78.8648 86.9971 78.8648 85.8029 78.8648C85.8029 79.8531 85.8029 80.8415 85.8029 81.8597C86.962 81.8597 88.1211 81.8597 89.3153 81.8597C89.3153 83.0127 89.3153 84.1658 89.3153 85.3537C84.8445 85.3537 80.3737 85.3537 75.7675 85.3537C75.7675 87.6598 75.7675 89.9658 75.7675 92.3418C74.6084 92.3418 73.4493 92.3418 72.2551 92.3418C72.2551 90.0357 72.2551 87.7297 72.2551 85.3537C69.9369 85.3537 67.6187 85.3537 65.2303 85.3537C65.2303 86.5067 65.2303 87.6598 65.2303 88.8477C64.0712 88.8477 62.9121 88.8477 61.7179 88.8477C61.7179 90.0008 61.7179 91.1538 61.7179 92.3418C62.877 92.3418 64.036 92.3418 65.2303 92.3418C65.2303 93.4948 65.2303 94.6478 65.2303 95.8358C64.0712 95.8358 62.9121 95.8358 61.7179 95.8358C61.7179 96.9888 61.7179 98.1418 61.7179 99.3298C60.5588 99.3298 59.3997 99.3298 58.2055 99.3298C58.2055 98.1768 58.2055 97.0237 58.2055 95.8358C57.2119 95.8358 56.2184 95.8358 55.1948 95.8358C55.1948 94.6827 55.1948 93.5297 55.1948 92.3418C56.1883 92.3418 57.1818 92.3418 58.2055 92.3418C58.2055 86.5766 58.2055 80.8115 58.2055 74.8717C61.6827 74.8717 65.16 74.8717 68.7427 74.8717C68.7427 72.7303 68.7427 70.589 68.7427 68.3828C71.0609 68.3828 73.379 68.3828 75.7675 68.3828C75.7675 67.2298 75.7675 66.0767 75.7675 64.8888C76.9266 64.8888 78.0857 64.8888 79.2799 64.8888C79.2799 66.0418 79.2799 67.1948 79.2799 68.3828C81.4325 68.3828 83.5851 68.3828 85.8029 68.3828C85.8029 66.0767 85.8029 63.7707 85.8029 61.3948C84.6438 61.3948 83.4847 61.3948 82.2905 61.3948C82.2905 60.2417 82.2905 59.0887 82.2905 57.9008C83.4496 57.9008 84.6087 57.9008 85.8029 57.9008C85.8029 56.9124 85.8029 55.9241 85.8029 54.9059Z" fill="#0F0F0F"/>
<path d="M68.7427 27.952C69.7362 27.952 70.7297 27.952 71.7533 27.952C71.7533 31.0817 71.7533 34.2113 71.7533 37.4358C69.6007 37.4358 67.4481 37.4358 65.2303 37.4358C65.2303 38.7535 65.2303 40.0713 65.2303 41.4289C66.3893 41.4289 67.5484 41.4289 68.7427 41.4289C68.7427 42.4172 68.7427 43.4056 68.7427 44.4238C69.9017 44.4238 71.0608 44.4238 72.2551 44.4238C72.2551 45.5768 72.2551 46.7299 72.2551 47.9178C69.9369 47.9178 67.6187 47.9178 65.2303 47.9178C65.2303 46.7648 65.2303 45.6118 65.2303 44.4238C64.0712 44.4238 62.9121 44.4238 61.7178 44.4238C61.7178 46.7299 61.7178 49.0359 61.7178 51.4118C65.1951 51.4118 68.6724 51.4118 72.2551 51.4118C72.2551 52.5649 72.2551 53.7179 72.2551 54.9059C69.9369 54.9059 67.6187 54.9059 65.2303 54.9059C65.2303 57.0472 65.2303 59.1885 65.2303 61.3947C64.0712 61.3947 62.9121 61.3947 61.7178 61.3947C61.7178 60.2417 61.7178 59.0887 61.7178 57.9007C60.7243 57.9007 59.7308 57.9007 58.7072 57.9007C58.7072 56.9124 58.7072 55.9241 58.7072 54.9059C57.5481 54.9059 56.389 54.9059 55.1948 54.9059C55.1948 57.0472 55.1948 59.1885 55.1948 61.3947C56.1883 61.3947 57.1818 61.3947 58.2054 61.3947C58.2054 62.5478 58.2054 63.7008 58.2054 64.8888C59.3645 64.8888 60.5236 64.8888 61.7178 64.8888C61.7178 66.0418 61.7178 67.1948 61.7178 68.3828C58.4062 68.3828 55.0945 68.3828 51.6824 68.3828C51.6824 67.2297 51.6824 66.0767 51.6824 64.8888C50.5233 64.8888 49.3642 64.8888 48.17 64.8888C48.17 66.0418 48.17 67.1948 48.17 68.3828C47.0109 68.3828 45.8518 68.3828 44.6576 68.3828C44.6576 67.2297 44.6576 66.0767 44.6576 64.8888C42.505 64.8888 40.3524 64.8888 38.1346 64.8888C38.1346 67.1948 38.1346 69.5009 38.1346 71.8768C36.9755 71.8768 35.8164 71.8768 34.6222 71.8768C34.6222 72.8651 34.6222 73.8534 34.6222 74.8717C33.4631 74.8717 32.304 74.8717 31.1098 74.8717C31.1098 73.7186 31.1098 72.5656 31.1098 71.3776C30.1162 71.3776 29.1227 71.3776 28.0991 71.3776C28.0991 70.3893 28.0991 69.401 28.0991 68.3828C30.2517 68.3828 32.4043 68.3828 34.6222 68.3828C34.6222 65.0884 34.6222 61.7941 34.6222 58.3999C36.7748 58.3999 38.9274 58.3999 41.1452 58.3999C41.1452 59.3882 41.1452 60.3765 41.1452 61.3947C44.6225 61.3947 48.0998 61.3947 51.6824 61.3947C51.6824 59.2534 51.6824 57.1121 51.6824 54.9059C50.5233 54.9059 49.3642 54.9059 48.17 54.9059C48.17 55.8942 48.17 56.8825 48.17 57.9007C46.0174 57.9007 43.8648 57.9007 41.647 57.9007C41.647 56.9124 41.647 55.9241 41.647 54.9059C42.6405 54.9059 43.634 54.9059 44.6576 54.9059C44.6576 53.7528 44.6576 52.5998 44.6576 51.4118C45.8167 51.4118 46.9758 51.4118 48.17 51.4118C48.17 50.2588 48.17 49.1058 48.17 47.9178C49.3291 47.9178 50.4882 47.9178 51.6824 47.9178C51.6824 46.7648 51.6824 45.6118 51.6824 44.4238C52.8415 44.4238 54.0006 44.4238 55.1948 44.4238C55.1948 46.7299 55.1948 49.0359 55.1948 51.4118C56.1883 51.4118 57.1818 51.4118 58.2054 51.4118C58.2054 47.9528 58.2054 44.4937 58.2054 40.9298C59.3645 40.9298 60.5236 40.9298 61.7178 40.9298C61.7178 38.7885 61.7178 36.6471 61.7178 34.4409C64.036 34.4409 66.3542 34.4409 68.7427 34.4409C68.7427 32.2996 68.7427 30.1582 68.7427 27.952Z" fill="#F6F6F6"/>
<path d="M0.501465 75.3708C8.28395 75.3708 16.0664 75.3708 24.0847 75.3708C24.0847 83.1126 24.0847 90.8543 24.0847 98.8307C16.3023 98.8307 8.51978 98.8307 0.501465 98.8307C0.501465 91.0889 0.501465 83.3472 0.501465 75.3708Z" fill="#090909"/>
<path d="M75.7676 0.499146C83.5501 0.499146 91.3325 0.499146 99.3509 0.499146C99.3509 8.24088 99.3509 15.9826 99.3509 23.959C91.5684 23.959 83.7859 23.959 75.7676 23.959C75.7676 16.2172 75.7676 8.47548 75.7676 0.499146Z" fill="#090909"/>
<path d="M0.501465 0.499146C8.28395 0.499146 16.0664 0.499146 24.0847 0.499146C24.0847 8.24088 24.0847 15.9826 24.0847 23.959C16.3023 23.959 8.51978 23.959 0.501465 23.959C0.501465 16.2172 0.501465 8.47548 0.501465 0.499146Z" fill="#090909"/>
<path d="M10.5373 27.453C17.3263 27.453 24.1153 27.453 31.11 27.453C31.11 28.606 31.11 29.7591 31.11 30.947C27.6327 30.947 24.1554 30.947 20.5727 30.947C20.5727 32.1 20.5727 33.2531 20.5727 34.441C22.8909 34.441 25.2091 34.441 27.5976 34.441C27.5976 36.7471 27.5976 39.0531 27.5976 41.4291C28.7566 41.4291 29.9157 41.4291 31.11 41.4291C31.11 40.276 31.11 39.123 31.11 37.935C32.2691 37.935 33.4281 37.935 34.6224 37.935C34.6224 40.0764 34.6224 42.2177 34.6224 44.4239C35.7815 44.4239 36.9405 44.4239 38.1348 44.4239C38.1348 45.577 38.1348 46.73 38.1348 47.9179C39.2939 47.9179 40.453 47.9179 41.6472 47.9179C41.6472 49.071 41.6472 50.224 41.6472 51.412C42.6407 51.412 43.6342 51.412 44.6578 51.412C44.6578 52.565 44.6578 53.718 44.6578 54.906C43.4987 54.906 42.3396 54.906 41.1454 54.906C41.1454 55.8943 41.1454 56.8826 41.1454 57.9008C38.9928 57.9008 36.8402 57.9008 34.6224 57.9008C34.6224 56.9125 34.6224 55.9242 34.6224 54.906C35.7815 54.906 36.9405 54.906 38.1348 54.906C38.1348 53.753 38.1348 52.5999 38.1348 51.412C35.651 51.412 33.1672 51.412 30.6082 51.412C30.6082 52.4003 30.6082 53.3886 30.6082 54.4068C29.7803 54.4068 28.9523 54.4068 28.0993 54.4068C28.0993 53.4185 28.0993 52.4302 28.0993 51.412C25.6156 51.412 23.1318 51.412 20.5727 51.412C20.5727 52.565 20.5727 53.718 20.5727 54.906C22.8909 54.906 25.2091 54.906 27.5976 54.906C27.5976 55.8943 27.5976 56.8826 27.5976 57.9008C23.1268 57.9008 18.656 57.9008 14.0497 57.9008C14.0497 56.9125 14.0497 55.9242 14.0497 54.906C15.2088 54.906 16.3679 54.906 17.5621 54.906C17.5621 53.753 17.5621 52.5999 17.5621 51.412C16.403 51.412 15.2439 51.412 14.0497 51.412C14.0497 50.2589 14.0497 49.1059 14.0497 47.9179C18.5205 47.9179 22.9913 47.9179 27.5976 47.9179C27.5976 46.7649 27.5976 45.6119 27.5976 44.4239C25.445 44.4239 23.2924 44.4239 21.0745 44.4239C21.0745 43.4356 21.0745 42.4473 21.0745 41.4291C22.2336 41.4291 23.3927 41.4291 24.5869 41.4291C24.5869 40.276 24.5869 39.123 24.5869 37.935C23.2622 37.935 21.9376 37.935 20.5727 37.935C20.5727 38.9234 20.5727 39.9117 20.5727 40.9299C19.5792 40.9299 18.5857 40.9299 17.5621 40.9299C17.5621 37.6356 17.5621 34.3412 17.5621 30.947C16.403 30.947 15.2439 30.947 14.0497 30.947C14.0497 32.1 14.0497 33.2531 14.0497 34.441C11.7315 34.441 9.41334 34.441 7.0249 34.441C7.0249 33.288 7.0249 32.135 7.0249 30.947C8.184 30.947 9.34309 30.947 10.5373 30.947C10.5373 29.794 10.5373 28.641 10.5373 27.453Z" fill="#060606"/>
<path d="M96.3401 37.9351C97.3336 37.9351 98.3271 37.9351 99.3508 37.9351C99.3508 43.5355 99.3508 49.1359 99.3508 54.906C98.3573 54.906 97.3637 54.906 96.3401 54.906C96.3401 52.5999 96.3401 50.2939 96.3401 47.918C95.181 47.918 94.0219 47.918 92.8277 47.918C92.8277 50.224 92.8277 52.5301 92.8277 54.906C91.6686 54.906 90.5095 54.906 89.3153 54.906C89.3153 52.5999 89.3153 50.2939 89.3153 47.918C88.1562 47.918 86.9971 47.918 85.8029 47.918C85.8029 49.071 85.8029 50.224 85.8029 51.412C83.6503 51.412 81.4977 51.412 79.2799 51.412C79.2799 52.565 79.2799 53.718 79.2799 54.906C78.1208 54.906 76.9617 54.906 75.7675 54.906C75.7675 56.059 75.7675 57.212 75.7675 58.4C74.6084 58.4 73.4493 58.4 72.2551 58.4C72.2551 59.3883 72.2551 60.3766 72.2551 61.3949C71.096 61.3949 69.9369 61.3949 68.7427 61.3949C68.7427 62.5479 68.7427 63.7009 68.7427 64.8889C67.5836 64.8889 66.4245 64.8889 65.2303 64.8889C65.2303 66.0419 65.2303 67.1949 65.2303 68.3829C64.0712 68.3829 62.9121 68.3829 61.7179 68.3829C61.7179 67.2299 61.7179 66.0769 61.7179 64.8889C60.5588 64.8889 59.3997 64.8889 58.2055 64.8889C58.2055 63.7359 58.2055 62.5828 58.2055 61.3949C57.2119 61.3949 56.2184 61.3949 55.1948 61.3949C55.1948 59.2535 55.1948 57.1122 55.1948 54.906C56.3539 54.906 57.513 54.906 58.7072 54.906C58.7072 55.8943 58.7072 56.8826 58.7072 57.9009C59.7007 57.9009 60.6942 57.9009 61.7179 57.9009C61.7179 59.0539 61.7179 60.2069 61.7179 61.3949C62.877 61.3949 64.036 61.3949 65.2303 61.3949C65.2303 59.2535 65.2303 57.1122 65.2303 54.906C67.5485 54.906 69.8666 54.906 72.2551 54.906C72.2551 53.753 72.2551 52.5999 72.2551 51.412C68.7778 51.412 65.3005 51.412 61.7179 51.412C61.7179 49.1059 61.7179 46.7999 61.7179 44.4239C62.877 44.4239 64.036 44.4239 65.2303 44.4239C65.2303 45.577 65.2303 46.73 65.2303 47.918C67.5485 47.918 69.8666 47.918 72.2551 47.918C72.2551 46.7649 72.2551 45.6119 72.2551 44.4239C73.4142 44.4239 74.5733 44.4239 75.7675 44.4239C75.7675 43.4356 75.7675 42.4473 75.7675 41.4291C77.9201 41.4291 80.0727 41.4291 82.2905 41.4291C82.2905 42.4174 82.2905 43.4057 82.2905 44.4239C86.9269 44.4239 91.5633 44.4239 96.3401 44.4239C96.3401 42.2826 96.3401 40.1413 96.3401 37.9351Z" fill="#070707"/>
<path d="M58.2054 20.465C60.5236 20.465 62.8417 20.465 65.2302 20.465C65.2302 21.618 65.2302 22.771 65.2302 23.959C64.0711 23.959 62.912 23.959 61.7178 23.959C61.7178 22.9707 61.7178 21.9824 61.7178 20.9641C60.7243 20.9641 59.7308 20.9641 58.7071 20.9641C58.7071 23.1054 58.7071 25.2468 58.7071 27.453C62.0188 27.453 65.3305 27.453 68.7426 27.453C68.7426 25.1469 68.7426 22.8409 68.7426 20.465C69.9017 20.465 71.0608 20.465 72.255 20.465C72.255 22.771 72.255 25.0771 72.255 27.453C73.4141 27.453 74.5732 27.453 75.7674 27.453C75.7674 30.9121 75.7674 34.3711 75.7674 37.935C74.6083 37.935 73.4492 37.935 72.255 37.935C72.255 40.0764 72.255 42.2177 72.255 44.4239C71.0959 44.4239 69.9368 44.4239 68.7426 44.4239C68.7426 43.4356 68.7426 42.4473 68.7426 41.4291C67.5835 41.4291 66.4244 41.4291 65.2302 41.4291C65.2302 40.1113 65.2302 38.7936 65.2302 37.4359C67.3828 37.4359 69.5354 37.4359 71.7532 37.4359C71.7532 34.3063 71.7532 31.1766 71.7532 27.9521C70.7597 27.9521 69.7662 27.9521 68.7426 27.9521C68.7426 30.0935 68.7426 32.2348 68.7426 34.441C66.4244 34.441 64.1062 34.441 61.7178 34.441C61.7178 36.5824 61.7178 38.7237 61.7178 40.9299C60.5587 40.9299 59.3996 40.9299 58.2054 40.9299C58.2054 44.389 58.2054 47.8481 58.2054 51.412C57.2119 51.412 56.2183 51.412 55.1947 51.412C55.1947 49.1059 55.1947 46.7999 55.1947 44.4239C52.8765 44.4239 50.5584 44.4239 48.1699 44.4239C48.1699 37.8352 48.1699 31.2465 48.1699 24.4581C49.329 24.4581 50.4881 24.4581 51.6823 24.4581C51.6823 25.4464 51.6823 26.4347 51.6823 27.453C53.8349 27.453 55.9875 27.453 58.2054 27.453C58.2054 25.1469 58.2054 22.8409 58.2054 20.465Z" fill="#898989"/>
<path d="M85.8028 47.918C86.9619 47.918 88.121 47.918 89.3152 47.918C89.3152 50.224 89.3152 52.5301 89.3152 54.906C88.1561 54.906 86.997 54.906 85.8028 54.906C85.8028 55.8943 85.8028 56.8826 85.8028 57.9009C84.6437 57.9009 83.4846 57.9009 82.2904 57.9009C82.2904 59.0539 82.2904 60.2069 82.2904 61.3949C83.4495 61.3949 84.6086 61.3949 85.8028 61.3949C85.8028 63.7009 85.8028 66.007 85.8028 68.3829C83.6502 68.3829 81.4976 68.3829 79.2798 68.3829C79.2798 67.2299 79.2798 66.0769 79.2798 64.8889C78.1207 64.8889 76.9616 64.8889 75.7674 64.8889C75.7674 66.0419 75.7674 67.1949 75.7674 68.3829C73.4492 68.3829 71.131 68.3829 68.7426 68.3829C68.7426 70.5242 68.7426 72.6656 68.7426 74.8718C65.2653 74.8718 61.788 74.8718 58.2054 74.8718C58.2054 80.6369 58.2054 86.402 58.2054 92.3419C57.2119 92.3419 56.2183 92.3419 55.1947 92.3419C55.1947 91.1888 55.1947 90.0358 55.1947 88.8479C52.8765 88.8479 50.5584 88.8479 48.1699 88.8479C48.1699 87.6948 48.1699 86.5418 48.1699 85.3538C49.329 85.3538 50.4881 85.3538 51.6823 85.3538C51.6823 84.3655 51.6823 83.3772 51.6823 82.359C52.8414 82.359 54.0005 82.359 55.1947 82.359C55.1947 81.0412 55.1947 79.7235 55.1947 78.3658C54.0356 78.3658 52.8765 78.3658 51.6823 78.3658C51.6823 76.2245 51.6823 74.0831 51.6823 71.8769C54.994 71.8769 58.3057 71.8769 61.7178 71.8769C61.7178 70.7239 61.7178 69.5709 61.7178 68.3829C62.8769 68.3829 64.036 68.3829 65.2302 68.3829C65.2302 67.2299 65.2302 66.0769 65.2302 64.8889C66.3893 64.8889 67.5484 64.8889 68.7426 64.8889C68.7426 63.7359 68.7426 62.5828 68.7426 61.3949C69.9017 61.3949 71.0608 61.3949 72.255 61.3949C72.255 60.4066 72.255 59.4183 72.255 58.4C73.4141 58.4 74.5732 58.4 75.7674 58.4C75.7674 57.247 75.7674 56.094 75.7674 54.906C76.9265 54.906 78.0856 54.906 79.2798 54.906C79.2798 53.753 79.2798 52.5999 79.2798 51.412C81.4324 51.412 83.585 51.412 85.8028 51.412C85.8028 50.259 85.8028 49.1059 85.8028 47.918Z" fill="#FAFAFA"/>
<path d="M4.01416 78.8649C9.47846 78.8649 14.9428 78.8649 20.5726 78.8649C20.5726 84.3006 20.5726 89.7362 20.5726 95.3367C15.1083 95.3367 9.64404 95.3367 4.01416 95.3367C4.01416 89.901 4.01416 84.4653 4.01416 78.8649Z" fill="#FBFBFB"/>
<path d="M79.2798 3.99304C84.7441 3.99304 90.2084 3.99304 95.8383 3.99304C95.8383 9.42873 95.8383 14.8644 95.8383 20.4648C90.374 20.4648 84.9097 20.4648 79.2798 20.4648C79.2798 15.0291 79.2798 9.59345 79.2798 3.99304Z" fill="#FBFBFB"/>
<path d="M4.01416 3.99304C9.47846 3.99304 14.9428 3.99304 20.5726 3.99304C20.5726 9.42873 20.5726 14.8644 20.5726 20.4648C15.1083 20.4648 9.64404 20.4648 4.01416 20.4648C4.01416 15.0291 4.01416 9.59345 4.01416 3.99304Z" fill="#FBFBFB"/>
<path d="M41.6472 20.465C42.6407 20.465 43.6342 20.465 44.6578 20.465C44.6578 21.7827 44.6578 23.1005 44.6578 24.4581C45.8169 24.4581 46.976 24.4581 48.1702 24.4581C48.1702 31.0468 48.1702 37.6356 48.1702 44.4239C49.3293 44.4239 50.4884 44.4239 51.6826 44.4239C51.6826 45.577 51.6826 46.73 51.6826 47.9179C50.5235 47.9179 49.3644 47.9179 48.1702 47.9179C48.1702 49.071 48.1702 50.224 48.1702 51.412C47.0111 51.412 45.852 51.412 44.6578 51.412C44.6578 49.1059 44.6578 46.7999 44.6578 44.4239C43.4987 44.4239 42.3396 44.4239 41.1454 44.4239C41.1454 43.4356 41.1454 42.4473 41.1454 41.4291C40.1519 41.4291 39.1584 41.4291 38.1348 41.4291C38.1348 39.123 38.1348 36.817 38.1348 34.441C40.2874 34.441 42.44 34.441 44.6578 34.441C44.6578 33.288 44.6578 32.135 44.6578 30.947C43.6643 30.947 42.6708 30.947 41.6472 30.947C41.6472 27.4879 41.6472 24.0289 41.6472 20.465Z" fill="#040404"/>
<path d="M58.7074 27.952C62.0191 27.952 65.3308 27.952 68.7429 27.952C68.7429 30.0934 68.7429 32.2347 68.7429 34.4409C66.4247 34.4409 64.1065 34.4409 61.7181 34.4409C61.7181 36.5822 61.7181 38.7236 61.7181 40.9298C60.559 40.9298 59.3999 40.9298 58.2057 40.9298C58.2057 44.3889 58.2057 47.8479 58.2057 51.4118C57.2121 51.4118 56.2186 51.4118 55.195 51.4118C55.195 49.1058 55.195 46.7997 55.195 44.4238C54.0359 44.4238 52.8768 44.4238 51.6826 44.4238C51.6826 43.4355 51.6826 42.4472 51.6826 41.4289C52.8417 41.4289 54.0008 41.4289 55.195 41.4289C55.195 40.2759 55.195 39.1229 55.195 37.9349C54.0359 37.9349 52.8768 37.9349 51.6826 37.9349C51.6826 36.7819 51.6826 35.6289 51.6826 34.4409C52.8417 34.4409 54.0008 34.4409 55.195 34.4409C55.195 33.2879 55.195 32.1349 55.195 30.9469C56.3541 30.9469 57.5132 30.9469 58.7074 30.9469C58.7074 29.9586 58.7074 28.9703 58.7074 27.952Z" fill="#020202"/>
<path d="M92.8278 85.3538C93.9869 85.3538 95.146 85.3538 96.3402 85.3538C96.3402 86.5068 96.3402 87.6598 96.3402 88.8478C97.4993 88.8478 98.6584 88.8478 99.8526 88.8478C99.8526 91.1538 99.8526 93.4599 99.8526 95.8358C98.6935 95.8358 97.5344 95.8358 96.3402 95.8358C96.3402 94.6828 96.3402 93.5298 96.3402 92.3418C95.1811 92.3418 94.022 92.3418 92.8278 92.3418C92.8278 93.4948 92.8278 94.6478 92.8278 95.8358C91.6687 95.8358 90.5096 95.8358 89.3154 95.8358C89.3154 96.8241 89.3154 97.8124 89.3154 98.8307C84.8446 98.8307 80.3738 98.8307 75.7676 98.8307C75.7676 97.8424 75.7676 96.8541 75.7676 95.8358C76.9267 95.8358 78.0858 95.8358 79.28 95.8358C79.28 93.5298 79.28 91.2237 79.28 88.8478C81.4326 88.8478 83.5852 88.8478 85.803 88.8478C85.803 90.0008 85.803 91.1538 85.803 92.3418C86.9621 92.3418 88.1212 92.3418 89.3154 92.3418C89.3154 91.1888 89.3154 90.0357 89.3154 88.8478C90.4745 88.8478 91.6336 88.8478 92.8278 88.8478C92.8278 87.6947 92.8278 86.5417 92.8278 85.3538Z" fill="#0A0A0A"/>
<path d="M34.6222 58.4C36.7748 58.4 38.9274 58.4 41.1452 58.4C41.1452 59.3883 41.1452 60.3766 41.1452 61.3949C44.6225 61.3949 48.0998 61.3949 51.6824 61.3949C51.6824 62.5479 51.6824 63.7009 51.6824 64.8889C50.5233 64.8889 49.3642 64.8889 48.17 64.8889C48.17 66.0419 48.17 67.195 48.17 68.3829C47.0109 68.3829 45.8518 68.3829 44.6576 68.3829C44.6576 67.2299 44.6576 66.0769 44.6576 64.8889C42.505 64.8889 40.3524 64.8889 38.1346 64.8889C38.1346 67.195 38.1346 69.501 38.1346 71.8769C36.9755 71.8769 35.8164 71.8769 34.6222 71.8769C34.6222 72.8652 34.6222 73.8536 34.6222 74.8718C33.4631 74.8718 32.304 74.8718 31.1098 74.8718C31.1098 73.7188 31.1098 72.5658 31.1098 71.3778C30.1162 71.3778 29.1227 71.3778 28.0991 71.3778C28.0991 70.3895 28.0991 69.4012 28.0991 68.3829C30.2517 68.3829 32.4043 68.3829 34.6222 68.3829C34.6222 65.0886 34.6222 61.7942 34.6222 58.4Z" fill="#F7F7F7"/>
<path d="M20.5728 51.4119C23.0565 51.4119 25.5403 51.4119 28.0993 51.4119C28.0993 52.4002 28.0993 53.3885 28.0993 54.4067C28.9273 54.4067 29.7552 54.4067 30.6082 54.4067C30.6082 53.4184 30.6082 52.4301 30.6082 51.4119C33.092 51.4119 35.5757 51.4119 38.1348 51.4119C38.1348 52.5649 38.1348 53.7179 38.1348 54.9059C36.9757 54.9059 35.8166 54.9059 34.6224 54.9059C34.6224 55.8942 34.6224 56.8825 34.6224 57.9007C36.775 57.9007 38.9276 57.9007 41.1454 57.9007C41.1454 56.9124 41.1454 55.9241 41.1454 54.9059C41.311 54.9059 41.4766 54.9059 41.6472 54.9059C41.6472 55.8942 41.6472 56.8825 41.6472 57.9007C43.7998 57.9007 45.9524 57.9007 48.1702 57.9007C48.1702 56.9124 48.1702 55.9241 48.1702 54.9059C49.3293 54.9059 50.4884 54.9059 51.6826 54.9059C51.6826 57.0472 51.6826 59.1885 51.6826 61.3948C48.2053 61.3948 44.7281 61.3948 41.1454 61.3948C41.1454 60.4065 41.1454 59.4181 41.1454 58.3999C38.9928 58.3999 36.8402 58.3999 34.6224 58.3999C34.6224 61.6943 34.6224 64.9886 34.6224 68.3828C34.4568 68.3828 34.2912 68.3828 34.1206 68.3828C34.1206 65.0884 34.1206 61.7941 34.1206 58.3999C32.1336 58.3999 30.1466 58.3999 28.0993 58.3999C28.0993 59.3882 28.0993 60.3765 28.0993 61.3948C27.9337 61.3948 27.7682 61.3948 27.5976 61.3948C27.5976 59.2534 27.5976 57.1121 27.5976 54.9059C25.2794 54.9059 22.9612 54.9059 20.5728 54.9059C20.5728 53.7529 20.5728 52.5998 20.5728 51.4119Z" fill="#515151"/>
<path d="M48.1699 24.458C49.329 24.458 50.4881 24.458 51.6823 24.458C51.6823 25.4463 51.6823 26.4346 51.6823 27.4529C53.8349 27.4529 55.9875 27.4529 58.2054 27.4529C58.2054 28.6059 58.2054 29.7589 58.2054 30.9469C57.2119 30.9469 56.2183 30.9469 55.1947 30.9469C55.1947 32.0999 55.1947 33.2529 55.1947 34.4409C54.0356 34.4409 52.8765 34.4409 51.6823 34.4409C51.6823 35.5939 51.6823 36.747 51.6823 37.9349C52.8414 37.9349 54.0005 37.9349 55.1947 37.9349C55.1947 39.0879 55.1947 40.241 55.1947 41.4289C54.0356 41.4289 52.8765 41.4289 51.6823 41.4289C51.6823 42.4172 51.6823 43.4056 51.6823 44.4238C50.5232 44.4238 49.3641 44.4238 48.1699 44.4238C48.1699 37.8351 48.1699 31.2464 48.1699 24.458Z" fill="#F8F8F8"/>
<path d="M7.0249 81.8597C10.5022 81.8597 13.9795 81.8597 17.5621 81.8597C17.5621 85.3188 17.5621 88.7779 17.5621 92.3418C14.0848 92.3418 10.6076 92.3418 7.0249 92.3418C7.0249 88.8827 7.0249 85.4236 7.0249 81.8597Z" fill="#0D0D0D"/>
<path d="M82.2905 6.98816C85.7678 6.98816 89.2451 6.98816 92.8277 6.98816C92.8277 10.4472 92.8277 13.9063 92.8277 17.4702C89.3505 17.4702 85.8732 17.4702 82.2905 17.4702C82.2905 14.0111 82.2905 10.5521 82.2905 6.98816Z" fill="#0D0D0D"/>
<path d="M7.0249 6.98816C10.5022 6.98816 13.9795 6.98816 17.5621 6.98816C17.5621 10.4472 17.5621 13.9063 17.5621 17.4702C14.0848 17.4702 10.6076 17.4702 7.0249 17.4702C7.0249 14.0111 7.0249 10.5521 7.0249 6.98816Z" fill="#0D0D0D"/>
<path d="M38.1345 71.8768C39.128 71.8768 40.1215 71.8768 41.1451 71.8768C41.1451 73.0299 41.1451 74.1829 41.1451 75.3708C42.3042 75.3708 43.4633 75.3708 44.6575 75.3708C44.6575 74.2178 44.6575 73.0648 44.6575 71.8768C45.8166 71.8768 46.9757 71.8768 48.1699 71.8768C48.1699 75.1712 48.1699 78.4655 48.1699 81.8597C47.0108 81.8597 45.8517 81.8597 44.6575 81.8597C44.6575 83.0128 44.6575 84.1658 44.6575 85.3537C43.664 85.3537 42.6705 85.3537 41.6469 85.3537C41.6469 84.2007 41.6469 83.0477 41.6469 81.8597C40.4878 81.8597 39.3287 81.8597 38.1345 81.8597C38.1345 80.7067 38.1345 79.5537 38.1345 78.3657C36.9754 78.3657 35.8163 78.3657 34.6221 78.3657C34.6221 77.3774 34.6221 76.3891 34.6221 75.3708C35.7812 75.3708 36.9403 75.3708 38.1345 75.3708C38.1345 74.2178 38.1345 73.0648 38.1345 71.8768Z" fill="#FCFCFC"/>
<path d="M72.2549 71.8768C75.5666 71.8768 78.8783 71.8768 82.2903 71.8768C82.2903 75.1712 82.2903 78.4655 82.2903 81.8597C78.9786 81.8597 75.6669 81.8597 72.2549 81.8597C72.2549 78.5654 72.2549 75.271 72.2549 71.8768Z" fill="#F3F3F3"/>
<path d="M0.501465 58.4C1.49497 58.4 2.48848 58.4 3.5121 58.4C3.5121 59.3883 3.5121 60.3766 3.5121 61.3949C5.83028 61.3949 8.14847 61.3949 10.5369 61.3949C10.5369 63.7009 10.5369 66.007 10.5369 68.3829C9.37781 68.3829 8.21872 68.3829 7.0245 68.3829C7.0245 69.3712 7.0245 70.3595 7.0245 71.3778C4.8719 71.3778 2.7193 71.3778 0.501465 71.3778C0.501465 67.0951 0.501465 62.8125 0.501465 58.4Z" fill="#030303"/>
<path d="M51.6824 44.424C52.8415 44.424 54.0006 44.424 55.1948 44.424C55.1948 46.73 55.1948 49.036 55.1948 51.412C54.0357 51.412 52.8766 51.412 51.6824 51.412C51.6824 52.565 51.6824 53.718 51.6824 54.906C50.5233 54.906 49.3642 54.906 48.17 54.906C48.17 55.8943 48.17 56.8826 48.17 57.9009C46.0174 57.9009 43.8648 57.9009 41.647 57.9009C41.647 56.9126 41.647 55.9242 41.647 54.906C42.6405 54.906 43.634 54.906 44.6576 54.906C44.6576 53.753 44.6576 52.5999 44.6576 51.412C45.8167 51.412 46.9758 51.412 48.17 51.412C48.17 50.259 48.17 49.1059 48.17 47.918C49.3291 47.918 50.4882 47.918 51.6824 47.918C51.6824 46.7649 51.6824 45.6119 51.6824 44.424Z" fill="#F9F9F9"/>
<path d="M7.0245 37.9351C8.18359 37.9351 9.34269 37.9351 10.5369 37.9351C10.5369 40.0764 10.5369 42.2177 10.5369 44.4239C11.696 44.4239 12.8551 44.4239 14.0493 44.4239C14.0493 45.577 14.0493 46.73 14.0493 47.918C12.8902 47.918 11.7311 47.918 10.5369 47.918C10.5369 49.071 10.5369 50.224 10.5369 51.412C9.37781 51.412 8.21872 51.412 7.0245 51.412C7.0245 49.1059 7.0245 46.7999 7.0245 44.4239C4.8719 44.4239 2.7193 44.4239 0.501465 44.4239C0.501465 43.4356 0.501465 42.4473 0.501465 41.4291C2.65407 41.4291 4.80667 41.4291 7.0245 41.4291C7.0245 40.276 7.0245 39.123 7.0245 37.9351Z" fill="#070707"/>
<path d="M89.3154 27.453C92.7927 27.453 96.27 27.453 99.8526 27.453C99.8526 28.606 99.8526 29.7591 99.8526 30.947C98.6935 30.947 97.5345 30.947 96.3402 30.947C96.3402 32.1 96.3402 33.2531 96.3402 34.441C95.1811 34.441 94.0221 34.441 92.8278 34.441C92.8278 35.5941 92.8278 36.7471 92.8278 37.935C91.6687 37.935 90.5096 37.935 89.3154 37.935C89.3154 34.476 89.3154 31.0169 89.3154 27.453Z" fill="#111111"/>
<path d="M41.6472 0.499146C42.6407 0.499146 43.6342 0.499146 44.6578 0.499146C44.6578 4.94653 44.6578 9.39391 44.6578 13.9761C42.5052 13.9761 40.3526 13.9761 38.1348 13.9761C38.1348 11.67 38.1348 9.36396 38.1348 6.98803C39.2939 6.98803 40.453 6.98803 41.6472 6.98803C41.6472 4.8467 41.6472 2.70537 41.6472 0.499146Z" fill="#040404"/>
<path d="M61.7178 44.424C62.8769 44.424 64.036 44.424 65.2302 44.424C65.2302 45.577 65.2302 46.73 65.2302 47.918C68.7075 47.918 72.1847 47.918 75.7674 47.918C75.7674 49.071 75.7674 50.224 75.7674 51.412C71.131 51.412 66.4946 51.412 61.7178 51.412C61.7178 49.1059 61.7178 46.7999 61.7178 44.424Z" fill="#080808"/>
<path d="M27.5972 0C28.7563 0 29.9154 0 31.1096 0C31.1096 2.30605 31.1096 4.6121 31.1096 6.98803C32.2687 6.98803 33.4278 6.98803 34.622 6.98803C34.622 9.29408 34.622 11.6001 34.622 13.9761C33.4629 13.9761 32.3038 13.9761 31.1096 13.9761C31.1096 12.823 31.1096 11.67 31.1096 10.482C29.9505 10.482 28.7914 10.482 27.5972 10.482C27.5972 7.02297 27.5972 3.56389 27.5972 0Z" fill="#141414"/>
<path d="M85.8029 54.9059C86.962 54.9059 88.1211 54.9059 89.3153 54.9059C89.3153 55.8942 89.3153 56.8825 89.3153 57.9008C91.6335 57.9008 93.9517 57.9008 96.3401 57.9008C96.3401 59.0538 96.3401 60.2068 96.3401 61.3948C91.7038 61.3948 87.0674 61.3948 82.2905 61.3948C82.2905 60.2417 82.2905 59.0887 82.2905 57.9008C83.4496 57.9008 84.6087 57.9008 85.8029 57.9008C85.8029 56.9124 85.8029 55.9241 85.8029 54.9059Z" fill="#797979"/>
<path d="M10.5373 47.918C11.6964 47.918 12.8555 47.918 14.0497 47.918C14.0497 49.071 14.0497 50.224 14.0497 51.412C15.2088 51.412 16.3679 51.412 17.5621 51.412C17.5621 52.565 17.5621 53.718 17.5621 54.906C16.403 54.906 15.2439 54.906 14.0497 54.906C14.0497 55.8943 14.0497 56.8826 14.0497 57.9009C12.8906 57.9009 11.7315 57.9009 10.5373 57.9009C10.5373 56.9126 10.5373 55.9243 10.5373 54.906C9.37821 54.906 8.21912 54.906 7.0249 54.906C7.0249 53.753 7.0249 52.5999 7.0249 51.412C8.184 51.412 9.34309 51.412 10.5373 51.412C10.5373 50.259 10.5373 49.1059 10.5373 47.918Z" fill="#F2F2F2"/>
<path d="M38.1348 64.8889C40.2874 64.8889 42.44 64.8889 44.6578 64.8889C44.6578 68.348 44.6578 71.8071 44.6578 75.371C43.4987 75.371 42.3396 75.371 41.1454 75.371C41.1454 74.2179 41.1454 73.0649 41.1454 71.8769C40.1519 71.8769 39.1584 71.8769 38.1348 71.8769C38.1348 69.5709 38.1348 67.2648 38.1348 64.8889Z" fill="#181818"/>
<path d="M51.6826 61.3948C53.8352 61.3948 55.9878 61.3948 58.2057 61.3948C58.2057 62.5478 58.2057 63.7008 58.2057 64.8888C59.3647 64.8888 60.5238 64.8888 61.7181 64.8888C61.7181 66.0418 61.7181 67.1948 61.7181 68.3828C58.4064 68.3828 55.0947 68.3828 51.6826 68.3828C51.6826 66.0768 51.6826 63.7707 51.6826 61.3948Z" fill="#F5F5F5"/>
<path d="M28.0989 58.4C30.086 58.4 32.073 58.4 34.1202 58.4C34.1202 61.6944 34.1202 64.9887 34.1202 68.3829C31.9676 68.3829 29.815 68.3829 27.5972 68.3829C27.5972 67.2299 27.5972 66.0769 27.5972 64.8889C28.7563 64.8889 29.9154 64.8889 31.1096 64.8889C31.1096 63.7359 31.1096 62.5829 31.1096 61.3949C30.1161 61.3949 29.1226 61.3949 28.0989 61.3949C28.0989 60.4066 28.0989 59.4183 28.0989 58.4Z" fill="#070707"/>
<path d="M82.2904 27.453C83.4495 27.453 84.6086 27.453 85.8028 27.453C85.8028 29.7591 85.8028 32.0651 85.8028 34.441C84.6437 34.441 83.4846 34.441 82.2904 34.441C82.2904 35.5941 82.2904 36.7471 82.2904 37.935C81.2969 37.935 80.3034 37.935 79.2798 37.935C79.2798 35.629 79.2798 33.3229 79.2798 30.947C80.2733 30.947 81.2668 30.947 82.2904 30.947C82.2904 29.794 82.2904 28.641 82.2904 27.453Z" fill="#0E0E0E"/>
<path d="M31.1098 51.4119C33.4279 51.4119 35.7461 51.4119 38.1346 51.4119C38.1346 52.5649 38.1346 53.7179 38.1346 54.9059C36.9755 54.9059 35.8164 54.9059 34.6222 54.9059C34.6222 55.8942 34.6222 56.8825 34.6222 57.9007C32.4696 57.9007 30.317 57.9007 28.0991 57.9007C28.0991 56.9124 28.0991 55.9241 28.0991 54.9059C29.0926 54.9059 30.0861 54.9059 31.1098 54.9059C31.1098 53.7529 31.1098 52.5998 31.1098 51.4119Z" fill="#F7F7F7"/>
<path d="M48.17 54.9059C49.3291 54.9059 50.4882 54.9059 51.6824 54.9059C51.6824 57.0472 51.6824 59.1885 51.6824 61.3948C48.3707 61.3948 45.059 61.3948 41.647 61.3948C41.647 60.4065 41.647 59.4182 41.647 58.3999C43.7996 58.3999 45.9522 58.3999 48.17 58.3999C48.17 57.2469 48.17 56.0938 48.17 54.9059Z" fill="black"/>
<path d="M34.6223 27.453C35.7814 27.453 36.9405 27.453 38.1347 27.453C38.1347 29.7591 38.1347 32.0651 38.1347 34.441C35.8165 34.441 33.4983 34.441 31.1099 34.441C31.1099 33.288 31.1099 32.135 31.1099 30.947C32.269 30.947 33.428 30.947 34.6223 30.947C34.6223 29.794 34.6223 28.641 34.6223 27.453Z" fill="#101010"/>
<path d="M65.2305 37.9351C67.5487 37.9351 69.8668 37.9351 72.2553 37.9351C72.2553 40.0764 72.2553 42.2177 72.2553 44.4239C71.0962 44.4239 69.9371 44.4239 68.7429 44.4239C68.7429 43.4356 68.7429 42.4473 68.7429 41.4291C67.5838 41.4291 66.4247 41.4291 65.2305 41.4291C65.2305 40.276 65.2305 39.123 65.2305 37.9351Z" fill="#101010"/>
<path d="M3.51221 51.4119C4.6713 51.4119 5.83039 51.4119 7.02461 51.4119C7.02461 52.5649 7.02461 53.7179 7.02461 54.9059C8.1837 54.9059 9.3428 54.9059 10.537 54.9059C10.537 55.8942 10.537 56.8825 10.537 57.9007C8.21883 57.9007 5.90064 57.9007 3.51221 57.9007C3.51221 55.7594 3.51221 53.6181 3.51221 51.4119Z" fill="#090909"/>
<path d="M14.0493 61.3948C15.0428 61.3948 16.0363 61.3948 17.0599 61.3948C17.0599 64.6891 17.0599 67.9835 17.0599 71.3777C16.0664 71.3777 15.0729 71.3777 14.0493 71.3777C14.0493 68.0833 14.0493 64.789 14.0493 61.3948Z" fill="#070707"/>
<path d="M72.2549 27.952C73.2484 27.952 74.2419 27.952 75.2655 27.952C75.2655 31.2464 75.2655 34.5407 75.2655 37.9349C74.272 37.9349 73.2785 37.9349 72.2549 37.9349C72.2549 34.6406 72.2549 31.3462 72.2549 27.952Z" fill="#060606"/>
<path d="M65.2305 95.8358C67.5487 95.8358 69.8668 95.8358 72.2553 95.8358C72.2553 96.9888 72.2553 98.1419 72.2553 99.3298C69.9371 99.3298 67.6189 99.3298 65.2305 99.3298C65.2305 98.1768 65.2305 97.0238 65.2305 95.8358Z" fill="#1B1B1B"/>
<path d="M20.5728 51.4119C22.8909 51.4119 25.2091 51.4119 27.5976 51.4119C27.5976 52.5649 27.5976 53.7179 27.5976 54.9059C25.2794 54.9059 22.9612 54.9059 20.5728 54.9059C20.5728 53.7529 20.5728 52.5998 20.5728 51.4119Z" fill="#EDEDED"/>
<path d="M58.2056 20.465C60.5238 20.465 62.8419 20.465 65.2304 20.465C65.2304 21.618 65.2304 22.771 65.2304 23.959C64.0713 23.959 62.9122 23.959 61.718 23.959C61.718 22.9707 61.718 21.9824 61.718 20.9641C60.7245 20.9641 59.731 20.9641 58.7073 20.9641C58.7073 23.1054 58.7073 25.2468 58.7073 27.453C62.019 27.453 65.3307 27.453 68.7428 27.453C68.7428 27.6177 68.7428 27.7824 68.7428 27.9521C65.4311 27.9521 62.1194 27.9521 58.7073 27.9521C58.7073 28.9404 58.7073 29.9288 58.7073 30.947C58.5418 30.947 58.3762 30.947 58.2056 30.947C58.2056 27.4879 58.2056 24.0289 58.2056 20.465Z" fill="#6E6E6E"/>
<path d="M51.6826 54.9059C52.8417 54.9059 54.0008 54.9059 55.195 54.9059C55.195 57.0472 55.195 59.1885 55.195 61.3948C54.0359 61.3948 52.8768 61.3948 51.6826 61.3948C51.6826 59.2534 51.6826 57.1121 51.6826 54.9059Z" fill="#F7F7F7"/>
<path d="M17.0601 30.9469C17.2256 30.9469 17.3912 30.9469 17.5618 30.9469C17.5618 34.2413 17.5618 37.5356 17.5618 40.9298C18.5553 40.9298 19.5488 40.9298 20.5725 40.9298C20.5725 39.9415 20.5725 38.9532 20.5725 37.9349C21.8971 37.9349 23.2218 37.9349 24.5866 37.9349C24.5866 39.088 24.5866 40.241 24.5866 41.4289C23.4275 41.4289 22.2685 41.4289 21.0742 41.4289C21.0742 42.4173 21.0742 43.4056 21.0742 44.4238C20.9086 44.4238 20.7431 44.4238 20.5725 44.4238C20.5725 43.4355 20.5725 42.4472 20.5725 41.4289C19.4134 41.4289 18.2543 41.4289 17.0601 41.4289C17.0601 37.9699 17.0601 34.5108 17.0601 30.9469Z" fill="#848484"/>
<path d="M21.0742 68.3829C23.2268 68.3829 25.3794 68.3829 27.5973 68.3829C27.5973 69.3712 27.5973 70.3595 27.5973 71.3778C25.4447 71.3778 23.2921 71.3778 21.0742 71.3778C21.0742 70.3895 21.0742 69.4012 21.0742 68.3829Z" fill="#070707"/>
<path d="M89.3154 58.4C91.468 58.4 93.6206 58.4 95.8385 58.4C95.8385 59.3883 95.8385 60.3766 95.8385 61.3949C93.6859 61.3949 91.5333 61.3949 89.3154 61.3949C89.3154 60.4066 89.3154 59.4183 89.3154 58.4Z" fill="#020202"/>
<path d="M4.01416 58.4C6.16676 58.4 8.31936 58.4 10.5372 58.4C10.5372 59.3883 10.5372 60.3766 10.5372 61.3949C8.38459 61.3949 6.23199 61.3949 4.01416 61.3949C4.01416 60.4066 4.01416 59.4183 4.01416 58.4Z" fill="#FCFCFC"/>
<path d="M82.7925 37.9351C84.9451 37.9351 87.0977 37.9351 89.3155 37.9351C89.3155 38.9234 89.3155 39.9117 89.3155 40.9299C87.1629 40.9299 85.0103 40.9299 82.7925 40.9299C82.7925 39.9416 82.7925 38.9533 82.7925 37.9351Z" fill="#020202"/>
<path d="M68.7427 20.9641C69.7362 20.9641 70.7297 20.9641 71.7533 20.9641C71.7533 23.1054 71.7533 25.2468 71.7533 27.453C70.7598 27.453 69.7663 27.453 68.7427 27.453C68.7427 25.3117 68.7427 23.1703 68.7427 20.9641Z" fill="#070707"/>
<path d="M20.5728 68.3829C20.7383 68.3829 20.9039 68.3829 21.0745 68.3829C21.0745 69.3712 21.0745 70.3595 21.0745 71.3778C23.2271 71.3778 25.3797 71.3778 27.5976 71.3778C27.5976 70.3895 27.5976 69.4012 27.5976 68.3829C27.7631 68.3829 27.9287 68.3829 28.0993 68.3829C28.0993 69.3712 28.0993 70.3595 28.0993 71.3778C29.0928 71.3778 30.0864 71.3778 31.11 71.3778C31.11 71.5425 31.11 71.7072 31.11 71.8769C30.1165 71.8769 29.1229 71.8769 28.0993 71.8769C28.0993 77.4774 28.0993 83.0778 28.0993 88.8479C27.9337 88.8479 27.7682 88.8479 27.5976 88.8479C27.5976 83.2475 27.5976 77.6471 27.5976 71.8769C25.2794 71.8769 22.9612 71.8769 20.5728 71.8769C20.5728 70.7239 20.5728 69.5709 20.5728 68.3829Z" fill="#666666"/>
<path d="M20.5728 61.3948C21.8974 61.3948 23.2221 61.3948 24.5869 61.3948C24.5869 62.5478 24.5869 63.7008 24.5869 64.8888C23.2623 64.8888 21.9376 64.8888 20.5728 64.8888C20.5728 63.7358 20.5728 62.5827 20.5728 61.3948Z" fill="#292929"/>
<path d="M34.6221 20.465C35.7812 20.465 36.9403 20.465 38.1345 20.465C38.1345 21.7827 38.1345 23.1005 38.1345 24.4581C36.9754 24.4581 35.8163 24.4581 34.6221 24.4581C34.6221 23.1404 34.6221 21.8226 34.6221 20.465Z" fill="#292929"/>
<path d="M27.5972 20.465C28.7563 20.465 29.9154 20.465 31.1096 20.465C31.1096 21.7827 31.1096 23.1005 31.1096 24.4581C29.9505 24.4581 28.7914 24.4581 27.5972 24.4581C27.5972 23.1404 27.5972 21.8226 27.5972 20.465Z" fill="#303030"/>
<path d="M27.5972 95.8358C28.7563 95.8358 29.9154 95.8358 31.1096 95.8358C31.1096 96.9888 31.1096 98.1419 31.1096 99.3298C29.9505 99.3298 28.7914 99.3298 27.5972 99.3298C27.5972 98.1768 27.5972 97.0238 27.5972 95.8358Z" fill="#222222"/>
<path d="M82.2905 92.3418C83.4496 92.3418 84.6087 92.3418 85.8029 92.3418C85.8029 93.4948 85.8029 94.6478 85.8029 95.8358C84.6438 95.8358 83.4847 95.8358 82.2905 95.8358C82.2905 94.6828 82.2905 93.5298 82.2905 92.3418Z" fill="#E0E0E0"/>
<path d="M31.1099 92.3418C32.269 92.3418 33.428 92.3418 34.6223 92.3418C34.6223 93.4948 34.6223 94.6478 34.6223 95.8358C33.4632 95.8358 32.3041 95.8358 31.1099 95.8358C31.1099 94.6828 31.1099 93.5298 31.1099 92.3418Z" fill="#171717"/>
<path d="M51.6826 61.3948C52.8417 61.3948 54.0008 61.3948 55.195 61.3948C55.195 62.5478 55.195 63.7008 55.195 64.8888C54.0359 64.8888 52.8768 64.8888 51.6826 64.8888C51.6826 63.7358 51.6826 62.5827 51.6826 61.3948Z" fill="#0F0F0F"/>
<path d="M51.6826 51.4119C52.8417 51.4119 54.0008 51.4119 55.195 51.4119C55.195 52.5649 55.195 53.7179 55.195 54.9059C54.0359 54.9059 52.8768 54.9059 51.6826 54.9059C51.6826 53.7529 51.6826 52.5998 51.6826 51.4119Z" fill="#0E0E0E"/>
<path d="M72.2549 47.918C73.414 47.918 74.5731 47.918 75.7673 47.918C75.7673 49.071 75.7673 50.224 75.7673 51.412C74.6082 51.412 73.4491 51.412 72.2549 51.412C72.2549 50.259 72.2549 49.1059 72.2549 47.918Z" fill="#ECECEC"/>
<path d="M0 27.453C1.15909 27.453 2.31819 27.453 3.5124 27.453C3.5124 28.606 3.5124 29.7591 3.5124 30.947C2.35331 30.947 1.19422 30.947 0 30.947C0 29.794 0 28.641 0 27.453Z" fill="#222222"/>
<path d="M27.5972 13.9761C28.7563 13.9761 29.9154 13.9761 31.1096 13.9761C31.1096 15.1291 31.1096 16.2821 31.1096 17.4701C29.9505 17.4701 28.7914 17.4701 27.5972 17.4701C27.5972 16.3171 27.5972 15.164 27.5972 13.9761Z" fill="#222222"/>
<path d="M61.7178 10.4821C62.8769 10.4821 64.036 10.4821 65.2302 10.4821C65.2302 11.6351 65.2302 12.7881 65.2302 13.9761C64.0711 13.9761 62.912 13.9761 61.7178 13.9761C61.7178 12.823 61.7178 11.67 61.7178 10.4821Z" fill="#E8E8E8"/>
<path d="M82.2906 34.441C82.4562 34.441 82.6218 34.441 82.7924 34.441C82.7924 36.5824 82.7924 38.7237 82.7924 40.9299C84.945 40.9299 87.0976 40.9299 89.3154 40.9299C89.3154 41.0946 89.3154 41.2594 89.3154 41.4291C87.1628 41.4291 85.0102 41.4291 82.7924 41.4291C82.7924 42.4174 82.7924 43.4057 82.7924 44.4239C82.6268 44.4239 82.4612 44.4239 82.2906 44.4239C82.2906 43.4356 82.2906 42.4473 82.2906 41.4291C80.138 41.4291 77.9854 41.4291 75.7676 41.4291C75.7676 41.2644 75.7676 41.0996 75.7676 40.9299C77.9202 40.9299 80.0728 40.9299 82.2906 40.9299C82.2906 38.7886 82.2906 36.6473 82.2906 34.441Z" fill="#828282"/>
<path d="M51.6826 95.8358C52.8417 95.8358 54.0008 95.8358 55.195 95.8358C55.195 96.8241 55.195 97.8124 55.195 98.8307C54.0359 98.8307 52.8768 98.8307 51.6826 98.8307C51.6826 97.8424 51.6826 96.8541 51.6826 95.8358Z" fill="#070707"/>
<path d="M34.6221 82.359C35.7812 82.359 36.9403 82.359 38.1345 82.359C38.1345 83.3473 38.1345 84.3356 38.1345 85.3539C36.9754 85.3539 35.8163 85.3539 34.6221 85.3539C34.6221 84.3656 34.6221 83.3773 34.6221 82.359Z" fill="#F2F2F2"/>
<path d="M65.2305 78.8649C66.3896 78.8649 67.5487 78.8649 68.7429 78.8649C68.7429 79.8532 68.7429 80.8415 68.7429 81.8597C67.5838 81.8597 66.4247 81.8597 65.2305 81.8597C65.2305 80.8714 65.2305 79.8831 65.2305 78.8649Z" fill="#F1F1F1"/>
<path d="M41.647 68.3829C42.6405 68.3829 43.634 68.3829 44.6576 68.3829C44.6576 69.536 44.6576 70.689 44.6576 71.8769C43.6641 71.8769 42.6706 71.8769 41.647 71.8769C41.647 70.7239 41.647 69.5709 41.647 68.3829Z" fill="#EEEEEE"/>
<path d="M96.3403 61.3948C97.3338 61.3948 98.3273 61.3948 99.351 61.3948C99.351 62.5478 99.351 63.7008 99.351 64.8888C98.3575 64.8888 97.3639 64.8888 96.3403 64.8888C96.3403 63.7358 96.3403 62.5827 96.3403 61.3948Z" fill="#080808"/>
<path d="M85.8032 54.9059C86.9623 54.9059 88.1214 54.9059 89.3156 54.9059C89.3156 55.8942 89.3156 56.8825 89.3156 57.9008C88.1565 57.9008 86.9974 57.9008 85.8032 57.9008C85.8032 56.9124 85.8032 55.9241 85.8032 54.9059Z" fill="#0E0E0E"/>
<path d="M0.501465 47.918C1.49497 47.918 2.48848 47.918 3.5121 47.918C3.5121 49.071 3.5121 50.224 3.5121 51.412C2.51859 51.412 1.52508 51.412 0.501465 51.412C0.501465 50.259 0.501465 49.1059 0.501465 47.918Z" fill="black"/>
<path d="M0.501465 34.441C1.49497 34.441 2.48848 34.441 3.5121 34.441C3.5121 35.5941 3.5121 36.7471 3.5121 37.9351C2.51859 37.9351 1.52508 37.9351 0.501465 37.9351C0.501465 36.782 0.501465 35.629 0.501465 34.441Z" fill="#080808"/>
<path d="M61.7178 20.9641C62.8769 20.9641 64.036 20.9641 65.2302 20.9641C65.2302 21.9524 65.2302 22.9407 65.2302 23.959C64.0711 23.959 62.912 23.959 61.7178 23.959C61.7178 22.9707 61.7178 21.9824 61.7178 20.9641Z" fill="#0A0A0A"/>
<path d="M51.6826 20.9641C52.8417 20.9641 54.0008 20.9641 55.195 20.9641C55.195 21.9524 55.195 22.9407 55.195 23.959C54.0359 23.959 52.8768 23.959 51.6826 23.959C51.6826 22.9707 51.6826 21.9824 51.6826 20.9641Z" fill="#F5F5F5"/>
<path d="M48.1699 20.9641C49.329 20.9641 50.4881 20.9641 51.6823 20.9641C51.6823 21.9524 51.6823 22.9407 51.6823 23.959C50.5232 23.959 49.3641 23.959 48.1699 23.959C48.1699 22.9707 48.1699 21.9824 48.1699 20.9641Z" fill="#010101"/>
<path d="M61.7178 0.499146C62.8769 0.499146 64.036 0.499146 65.2302 0.499146C65.2302 1.48745 65.2302 2.47576 65.2302 3.49401C64.0711 3.49401 62.912 3.49401 61.7178 3.49401C61.7178 2.50571 61.7178 1.5174 61.7178 0.499146Z" fill="#080808"/>
<path d="M41.1451 54.9059C41.3107 54.9059 41.4763 54.9059 41.6469 54.9059C41.6469 55.8942 41.6469 56.8825 41.6469 57.9008C43.7995 57.9008 45.9521 57.9008 48.1699 57.9008C48.1699 58.0655 48.1699 58.2302 48.1699 58.3999C46.0173 58.3999 43.8647 58.3999 41.6469 58.3999C41.6469 59.3882 41.6469 60.3765 41.6469 61.3948C41.4813 61.3948 41.3157 61.3948 41.1451 61.3948C41.1451 60.4065 41.1451 59.4182 41.1451 58.3999C38.9925 58.3999 36.8399 58.3999 34.6221 58.3999C34.6221 58.2352 34.6221 58.0705 34.6221 57.9008C36.7747 57.9008 38.9273 57.9008 41.1451 57.9008C41.1451 56.9124 41.1451 55.9241 41.1451 54.9059Z" fill="#7F7F7F"/>
<path d="M96.3403 78.8649C97.3338 78.8649 98.3273 78.8649 99.351 78.8649C99.351 79.8532 99.351 80.8415 99.351 81.8597C98.3575 81.8597 97.3639 81.8597 96.3403 81.8597C96.3403 80.8714 96.3403 79.8831 96.3403 78.8649Z" fill="#020202"/>
<path d="M75.7676 75.3708C76.7611 75.3708 77.7546 75.3708 78.7782 75.3708C78.7782 76.3592 78.7782 77.3475 78.7782 78.3657C77.7847 78.3657 76.7912 78.3657 75.7676 78.3657C75.7676 77.3774 75.7676 76.3891 75.7676 75.3708Z" fill="#030303"/>
<path d="M41.647 71.8768C42.6405 71.8768 43.634 71.8768 44.6576 71.8768C44.6576 72.8651 44.6576 73.8534 44.6576 74.8717C43.6641 74.8717 42.6706 74.8717 41.647 74.8717C41.647 73.8834 41.647 72.8951 41.647 71.8768Z" fill="#030303"/>
<path d="M34.6221 71.8768C35.6156 71.8768 36.6091 71.8768 37.6327 71.8768C37.6327 72.8651 37.6327 73.8534 37.6327 74.8717C36.6392 74.8717 35.6457 74.8717 34.6221 74.8717C34.6221 73.8834 34.6221 72.8951 34.6221 71.8768Z" fill="#030303"/>
<path d="M86.3047 58.4C87.2982 58.4 88.2917 58.4 89.3153 58.4C89.3153 59.3883 89.3153 60.3766 89.3153 61.3949C88.3218 61.3949 87.3283 61.3949 86.3047 61.3949C86.3047 60.4066 86.3047 59.4183 86.3047 58.4Z" fill="#F9F9F9"/>
<path d="M82.7925 58.4C83.786 58.4 84.7795 58.4 85.8031 58.4C85.8031 59.3883 85.8031 60.3766 85.8031 61.3949C84.8096 61.3949 83.8161 61.3949 82.7925 61.3949C82.7925 60.4066 82.7925 59.4183 82.7925 58.4Z" fill="#040404"/>
<path d="M10.5371 58.4C11.5306 58.4 12.5241 58.4 13.5477 58.4C13.5477 59.3883 13.5477 60.3766 13.5477 61.3949C12.5542 61.3949 11.5607 61.3949 10.5371 61.3949C10.5371 60.4066 10.5371 59.4183 10.5371 58.4Z" fill="#050505"/>
<path d="M41.647 37.9351C42.6405 37.9351 43.634 37.9351 44.6576 37.9351C44.6576 38.9234 44.6576 39.9117 44.6576 40.9299C43.6641 40.9299 42.6706 40.9299 41.647 40.9299C41.647 39.9416 41.647 38.9533 41.647 37.9351Z" fill="white"/>
<path d="M21.0742 37.9351C22.0677 37.9351 23.0612 37.9351 24.0849 37.9351C24.0849 38.9234 24.0849 39.9117 24.0849 40.9299C23.0913 40.9299 22.0978 40.9299 21.0742 40.9299C21.0742 39.9416 21.0742 38.9533 21.0742 37.9351Z" fill="#FDFDFD"/>
<path d="M41.1454 37.9351C41.311 37.9351 41.4766 37.9351 41.6472 37.9351C41.6472 38.9234 41.6472 39.9117 41.6472 40.9299C42.6407 40.9299 43.6342 40.9299 44.6578 40.9299C44.6578 41.0946 44.6578 41.2594 44.6578 41.4291C43.6643 41.4291 42.6708 41.4291 41.6472 41.4291C41.6472 42.4174 41.6472 43.4057 41.6472 44.4239C41.4816 44.4239 41.316 44.4239 41.1454 44.4239C41.1454 43.4356 41.1454 42.4473 41.1454 41.4291C40.1519 41.4291 39.1584 41.4291 38.1348 41.4291C38.1348 41.2644 38.1348 41.0996 38.1348 40.9299C39.1283 40.9299 40.1218 40.9299 41.1454 40.9299C41.1454 39.9416 41.1454 38.9533 41.1454 37.9351Z" fill="#7E7E7E"/>
</svg>
