<svg width="32" height="32" viewBox="0 0 32 32" fill="none" xmlns="http://www.w3.org/2000/svg">
<path d="M20.7732 15.9999C20.7732 18.6399 18.6399 20.7732 15.9999 20.7732C13.3599 20.7732 11.2266 18.6399 11.2266 15.9999C11.2266 13.3599 13.3599 11.2266 15.9999 11.2266C18.6399 11.2266 20.7732 13.3599 20.7732 15.9999Z" stroke="#DE1A1B" stroke-width="2.5" stroke-linecap="round" stroke-linejoin="round"/>
<path d="M15.9998 27.0266C20.7065 27.0266 25.0931 24.2533 28.1465 19.4533C29.3465 17.5733 29.3465 14.4133 28.1465 12.5333C25.0931 7.73329 20.7065 4.95996 15.9998 4.95996C11.2931 4.95996 6.90646 7.73329 3.85312 12.5333C2.65312 14.4133 2.65312 17.5733 3.85312 19.4533C6.90646 24.2533 11.2931 27.0266 15.9998 27.0266Z" stroke="#DE1A1B" stroke-width="2.5" stroke-linecap="round" stroke-linejoin="round"/>
</svg>
