<svg width="52" height="52" viewBox="0 0 52 52" fill="none" xmlns="http://www.w3.org/2000/svg">
<rect width="52" height="52" rx="26" fill="#DE1A1B"/>
<path d="M10.0364 27.518V32H7.71439V25.16L10.0364 27.518ZM16.4984 32.27L7.71439 23.36V20.03L14.1584 26.582V20.282H16.4984V32.27ZM24.1172 20.282H28.9412V22.622H24.1172V20.282ZM24.1172 24.98H28.9412V27.302H24.1172V24.98ZM22.8572 20.282V32H20.5172V20.282H22.8572ZM24.1172 29.678H28.9412V32H24.1172V29.678ZM33.9781 25.52H31.6021C31.7701 23.924 32.4181 22.61 33.5461 21.578C34.6741 20.546 36.0601 20.03 37.7041 20.03C39.3241 20.03 40.7401 20.558 41.9521 21.614C43.1641 22.67 43.7701 23.972 43.7701 25.52H41.3941C41.2741 24.632 40.8781 23.882 40.2061 23.27C39.5341 22.658 38.7061 22.352 37.7221 22.352C36.7381 22.352 35.9041 22.658 35.2201 23.27C34.5481 23.882 34.1341 24.632 33.9781 25.52ZM33.9781 26.708C34.0981 27.596 34.4941 28.352 35.1661 28.976C35.8501 29.588 36.6961 29.894 37.7041 29.894C38.7001 29.894 39.5461 29.582 40.2421 28.958C40.9381 28.322 41.3221 27.572 41.3941 26.708H43.7701C43.7701 28.256 43.1581 29.564 41.9341 30.632C40.7221 31.688 39.3121 32.216 37.7041 32.216C36.0961 32.216 34.7161 31.7 33.5641 30.668C32.4241 29.624 31.7701 28.304 31.6021 26.708H33.9781Z" fill="white"/>
</svg>
