<svg width="141" height="69" viewBox="0 0 141 69" fill="none" xmlns="http://www.w3.org/2000/svg">
<rect width="192" height="68.5" fill="white"/>
<path d="M12.3492 5C15.9511 6.20063 16.6923 7.39815 18.9742 10.375C19.6845 11.2877 20.3948 12.2003 21.1266 13.1406C21.8601 14.0842 22.5935 15.0278 23.3492 16C24.7392 17.7131 26.1351 19.4214 27.5367 21.125C31.3209 25.7392 35.0881 30.3669 38.8492 35C42.6766 39.7133 46.5066 44.4242 50.3492 49.125C51.3992 50.4108 51.3992 50.4108 52.4703 51.7227C54.0943 53.691 55.747 55.6288 57.4117 57.5625C59.3492 60 59.3492 60 59.3492 62C54.6171 62.0993 49.8855 62.1717 45.1525 62.2197C43.5443 62.2398 41.9362 62.267 40.3283 62.3018C38.0095 62.3506 35.6918 62.373 33.3727 62.3906C32.3036 62.4216 32.3036 62.4216 31.2129 62.4532C25.3458 62.4558 21.8801 60.4572 17.7399 56.4375C13.3443 50.8979 12.0737 48.1634 12.3492 41C14.3292 41 16.3092 41 18.3492 41C16.4613 37.5367 16.4613 37.5367 13.7621 34.7332C11.6209 32.1065 12.011 29.9208 12.0563 26.582C12.0659 25.3284 12.0756 24.0748 12.0856 22.7832C12.1107 21.4729 12.1358 20.1625 12.1617 18.8125C12.1768 17.4772 12.1905 16.1419 12.2028 14.8066C12.2382 11.5374 12.2876 8.26888 12.3492 5Z" fill="#094BAB"/>
<path d="M93.2243 26.4375C98.0579 29.8222 101.755 34.7591 102.826 40.5976C102.998 45.7816 102.224 49.5851 99.3493 54C98.7924 54.8662 98.2355 55.7325 97.6618 56.625C93.4853 60.9143 88.8693 63.1984 82.8493 63.5C76.8293 63.1984 72.2132 60.9143 68.0368 56.625C64.1767 50.6204 62.27 46.1551 63.3493 39C65.2204 33.1013 68.2997 29.4716 73.3493 26C79.3146 24.0072 87.5061 23.6231 93.2243 26.4375Z" fill="#0E2884"/>
<path d="M109.35 25.0001C112.65 24.9176 115.95 24.8351 119.35 24.7501C120.373 24.7137 121.397 24.6772 122.451 24.6397C128.518 24.5669 133.384 25.3067 138.35 29.0001C140.823 32.7094 141.015 35.6987 140.35 40.0001C137.528 45.5416 137.528 45.5416 134.1 46.8751C133.522 46.9163 132.945 46.9576 132.35 47.0001C135.122 51.2655 138.075 55.3314 141.178 59.3634C142.35 61.0001 142.35 61.0001 142.35 62.0001C138.741 62.8983 135.935 63.0732 132.35 62.0001C129.834 59.3508 127.816 56.7645 125.838 53.7122C124.764 52.0793 123.561 50.5335 122.35 49.0001C120.7 48.6701 119.05 48.3401 117.35 48.0001C117.35 52.6201 117.35 57.2401 117.35 62.0001C114.71 62.0001 112.07 62.0001 109.35 62.0001C109.35 49.7901 109.35 37.5801 109.35 25.0001Z" fill="#0D2683"/>
<path d="M14.3496 7C18.4415 9.99927 21.4436 13.4169 24.4746 17.4375C28.1568 22.2269 31.9134 26.917 35.8496 31.5C40.2098 36.5871 44.3761 41.8005 48.4817 47.0947C51.5694 51.0602 54.784 54.8614 58.2051 58.5469C59.3496 60 59.3496 60 59.3496 62C52.4196 62 45.4896 62 38.3496 62C37.5646 60.2134 36.7795 58.4267 35.9707 56.5859C28.6804 40.051 28.6804 40.051 20.748 23.8164C18.0643 18.4113 15.709 12.8906 14.3496 7Z" fill="#062181"/>
<path d="M81.6621 31.6875C86.7482 31.81 89.4538 33.235 93.1621 36.6875C94.9167 40.1043 94.9929 43.2906 94.3496 47C92.1446 51.3284 89.9187 54.1936 85.3496 56C80.0597 55.9055 77.0865 54.7369 73.3496 51C70.8248 47.5134 70.9149 44.2025 71.3496 40C76.0388 31.7159 76.0388 31.7159 81.6621 31.6875Z" fill="#F7F8FB"/>
<path d="M116.35 32C118.453 31.946 120.558 31.9072 122.662 31.875C124.42 31.8402 124.42 31.8402 126.213 31.8047C129.35 32 129.35 32 132.35 34C132.725 36.5 132.725 36.5 132.35 39C128.718 41.4213 126.966 41.2102 122.662 41.125C121.483 41.107 120.303 41.0889 119.088 41.0703C118.184 41.0471 117.281 41.0239 116.35 41C116.35 38.03 116.35 35.06 116.35 32Z" fill="#E4E7F1"/>
</svg>
